<?xml version="1.0" encoding="UTF-8" standalone="no"?><!DOCTYPE svg PUBLIC "-//W3C//DTD SVG 1.1//EN" "http://www.w3.org/Graphics/SVG/1.1/DTD/svg11.dtd"><svg width="100%" height="100%" viewBox="0 0 800 800" version="1.1" xmlns="http://www.w3.org/2000/svg" xmlns:xlink="http://www.w3.org/1999/xlink" xml:space="preserve" style="fill-rule:evenodd;clip-rule:evenodd;stroke-linecap:round;stroke-linejoin:round;stroke-miterlimit:1.41421;"><ellipse id="Roue-Gauche" cx="220.092" cy="558.821" rx="36.249" ry="36.08" style="fill:#000;"/><ellipse id="Roue-droite" cx="540.987" cy="556.682" rx="38.398" ry="38.219" style="fill:#000;"/><rect id="Barre-de-soutien" x="183.843" y="489.632" width="413.312" height="19.259" style="fill:#000;"/><rect id="Poignée" x="629.779" y="205.1" width="91.348" height="23.099" style="fill:#000;"/><path id="Barre-oblique" d="M650.365,208.852l-19.912,-3.532l-51.068,300.039l19.912,3.532l51.068,-300.039Z" style="fill:#000;"/><clipPath id="_clip1"><path id="Caddie" d="M579.385,228.199l-444.262,2.604l68.17,232.127l345.595,-2.026l30.497,-232.705Z"/></clipPath><g clip-path="url(#_clip1)"><rect x="156.152" y="333.856" width="423.233" height="23.417" style="fill:#000;"/><rect x="169.394" y="233.837" width="22.349" height="223.454" style="fill:#000;"/><rect x="230.76" y="233.837" width="22.349" height="223.454" style="fill:#000;"/><rect x="292.126" y="233.837" width="22.349" height="223.454" style="fill:#000;"/><rect x="353.492" y="233.837" width="22.349" height="223.454" style="fill:#000;"/><rect x="414.858" y="233.837" width="22.349" height="223.454" style="fill:#000;"/><rect x="476.224" y="233.837" width="22.349" height="223.454" style="fill:#000;"/><rect x="537.59" y="233.837" width="22.349" height="223.454" style="fill:#000;"/><rect x="156.152" y="388.059" width="423.233" height="23.417" style="fill:#000;"/><rect x="156.152" y="279.652" width="423.233" height="23.417" style="fill:#000;"/></g><path d="M579.385,228.199l-444.262,2.604l68.17,232.127l345.595,-2.026l30.497,-232.705Z" style="fill:none;stroke-width:22px;stroke:#000;"/></svg>