<?xml version="1.0" encoding="UTF-8" standalone="no"?><!DOCTYPE svg PUBLIC "-//W3C//DTD SVG 1.1//EN" "http://www.w3.org/Graphics/SVG/1.1/DTD/svg11.dtd"><svg width="100%" height="100%" viewBox="0 0 50 50" version="1.1" xmlns="http://www.w3.org/2000/svg" xmlns:xlink="http://www.w3.org/1999/xlink" xml:space="preserve" xmlns:serif="http://www.serif.com/" style="fill-rule:evenodd;clip-rule:evenodd;stroke-linecap:round;stroke-linejoin:round;stroke-miterlimit:1.5;"><path d="M40.136,2.627c-0.454,-0.829 -1.324,-1.344 -2.269,-1.344c-4.992,0 -20.742,0 -25.734,0c-0.945,0 -1.815,0.515 -2.269,1.344c-1.952,3.566 -7.201,13.155 -8.546,15.613c-0.209,0.381 -0.318,0.808 -0.318,1.243c0,3.633 0,21.239 0,27.93c0,0.686 0.273,1.344 0.758,1.829c0.485,0.485 1.143,0.758 1.829,0.758c8.344,0 34.482,0 42.826,0c0.686,0 1.344,-0.273 1.829,-0.758c0.485,-0.485 0.758,-1.143 0.758,-1.829c0,-6.691 0,-24.297 0,-27.93c0,-0.435 -0.109,-0.862 -0.318,-1.243c-1.345,-2.458 -6.594,-12.047 -8.546,-15.613Z" style="fill:#ffcb00;stroke:#000;stroke-width:2.5px;"/><path d="M16,16c0,-0.53 -0.211,-1.039 -0.586,-1.414c-0.375,-0.375 -0.884,-0.586 -1.414,-0.586c-0.53,0 -1.039,0.211 -1.414,0.586c-0.375,0.375 -0.586,0.884 -0.586,1.414c0,5.455 0,20.545 0,26c0,0.53 0.211,1.039 0.586,1.414c0.375,0.375 0.884,0.586 1.414,0.586c0.53,0 1.039,-0.211 1.414,-0.586c0.375,-0.375 0.586,-0.884 0.586,-1.414c0,-5.455 0,-20.545 0,-26Z"/><path d="M27,15.998c0,-1.103 -0.895,-1.998 -1.998,-1.998c-0.001,0 -0.003,0 -0.004,0c-1.103,0 -1.998,0.895 -1.998,1.998c0,5.454 0,20.55 0,26.004c0,1.103 0.895,1.998 1.998,1.998c0.001,0 0.003,0 0.004,0c1.103,0 1.998,-0.895 1.998,-1.998c0,-5.454 0,-20.55 0,-26.004Z"/><path d="M38,15.998c0,-1.103 -0.895,-1.998 -1.998,-1.998c-0.001,0 -0.003,0 -0.004,0c-1.103,0 -1.998,0.895 -1.998,1.998c0,5.454 0,20.55 0,26.004c0,1.103 0.895,1.998 1.998,1.998c0.001,0 0.003,0 0.004,0c1.103,0 1.998,-0.895 1.998,-1.998c0,-5.454 0,-20.55 0,-26.004Z"/></svg>